# xmcd
#
# Track frame offsets: 
#        150
#        22612
#        39767
#        55886
#        82985
#        97706
#        116214
#        138425
#        162560
#        184140
#        218104
#        243708
#
# Disc length: 3731 seconds
#
# Revision: 2
# Processed by: cddbd v1.5.2PL0 Copyright (c) Steve Scherf et al.
# Submitted via: ExactAudioCopy v1.0b3
#
DISCID=960e910c
DTITLE=Tino Gonzales - Modern Day Hobo
DYEAR=2001
DGENRE=Blues
TTITLE0=Born Under A Bad Sign
TTITLE1=It Ain't Easy
TTITLE2=I Don't Wanna
TTITLE3=Blues For Mary
TTITLE4=America (What Is Wrong With You)
TTITLE5=Modern Day Hobo
TTITLE6=All By Myself
TTITLE7=Last Two Dollars
TTITLE8=Fly With Me
TTITLE9=Mi Tierra
TTITLE10=Dancing With Angels
TTITLE11=Grover's Groove
EXTD=
EXTT0=
EXTT1=
EXTT2=
EXTT3=
EXTT4=
EXTT5=
EXTT6=
EXTT7=
EXTT8=
EXTT9=
EXTT10=
EXTT11=
PLAYORDER=
